<?xml version="1.0" ?><!DOCTYPE svg  PUBLIC '-//W3C//DTD SVG 1.1//EN'  'http://www.w3.org/Graphics/SVG/1.1/DTD/svg11.dtd'><svg enable-background="new 0 0 24 24" height="24px" id="Layer_1" version="1.1" viewBox="0 0 24 24" width="24px" xml:space="preserve" xmlns="http://www.w3.org/2000/svg" xmlns:xlink="http://www.w3.org/1999/xlink"><path d="M12.254,11.621c1.457,0,2.642-1.185,2.642-2.642s-1.185-2.641-2.642-2.641S9.612,7.523,9.612,8.979  S10.797,11.621,12.254,11.621z M12.254,7.338c0.905,0,1.642,0.736,1.642,1.641c0,0.905-0.736,1.642-1.642,1.642  s-1.642-0.736-1.642-1.642C10.612,8.075,11.349,7.338,12.254,7.338z"/><path d="M7.959,14.333v2.326c0,0.277,0.224,0.5,0.5,0.5h7.59c0.276,0,0.5-0.223,0.5-0.5v-2.326c0-1.815-1.389-2.3-2.25-2.3  c-0.002,0-0.002,0-0.002,0c-0.114,0.004-0.223,0.047-0.309,0.122l-1.734,1.505l-1.734-1.505c-0.09-0.079-0.229-0.123-0.349-0.123  C9.349,12.032,7.959,12.517,7.959,14.333z M8.959,14.333c0-1.025,0.647-1.252,1.055-1.293l1.912,1.66  c0.188,0.162,0.469,0.162,0.656,0l1.912-1.66c0.406,0.041,1.055,0.266,1.055,1.293v1.826h-6.59V14.333z"/><path d="M22.566,11.249c-0.276,0-0.5,0.224-0.5,0.5c0,0.321-0.016,0.638-0.045,0.951c-0.027,0.275,0.174,0.52,0.449,0.546  c0.016,0.001,0.032,0.003,0.049,0.003c0.254,0,0.472-0.193,0.496-0.453c0.033-0.344,0.051-0.694,0.051-1.047  C23.066,11.473,22.843,11.249,22.566,11.249z"/><path d="M19.74,18.093c-0.426,0.502-0.905,0.965-1.424,1.373c-0.217,0.172-0.254,0.486-0.084,0.703  c0.1,0.125,0.246,0.189,0.394,0.189c0.108,0,0.218-0.035,0.31-0.107c0.57-0.449,1.098-0.958,1.568-1.512  c0.178-0.211,0.152-0.525-0.059-0.705C20.234,17.856,19.92,17.882,19.74,18.093z"/><path d="M4.275,17.463c-0.161-0.224-0.474-0.275-0.698-0.114c-0.225,0.16-0.276,0.473-0.115,0.697  c0.424,0.592,0.91,1.141,1.442,1.635c0.096,0.089,0.218,0.133,0.34,0.133c0.134,0,0.268-0.054,0.367-0.16  c0.188-0.203,0.176-0.519-0.027-0.707C5.101,18.499,4.661,17.999,4.275,17.463z"/><path d="M12.846,21.544c-0.653,0.039-1.328,0.012-1.977-0.08c-0.279-0.041-0.527,0.152-0.566,0.426  c-0.038,0.273,0.152,0.526,0.426,0.564c0.501,0.071,1.014,0.107,1.525,0.107c0.219,0,0.436-0.007,0.651-0.02  c0.275-0.016,0.485-0.253,0.47-0.529C13.357,21.737,13.135,21.538,12.846,21.544z"/><path d="M16.646,20.526c-0.589,0.295-1.211,0.531-1.848,0.702c-0.268,0.071-0.426,0.346-0.354,0.612  c0.06,0.224,0.262,0.371,0.482,0.371c0.043,0,0.086-0.006,0.129-0.018c0.703-0.188,1.389-0.449,2.038-0.775  c0.247-0.123,0.347-0.424,0.223-0.67C17.193,20.502,16.893,20.4,16.646,20.526z"/><path d="M22.259,14.311c-0.264-0.08-0.544,0.067-0.626,0.331c-0.193,0.629-0.453,1.241-0.771,1.821  c-0.133,0.242-0.044,0.546,0.198,0.679c0.076,0.042,0.158,0.062,0.24,0.062c0.176,0,0.348-0.094,0.438-0.26  c0.351-0.64,0.636-1.314,0.851-2.007C22.67,14.672,22.522,14.392,22.259,14.311z"/><path d="M8.948,20.991c-0.621-0.223-1.221-0.51-1.785-0.852c-0.236-0.144-0.543-0.068-0.687,0.167s-0.068,0.544,0.167,0.687  c0.622,0.379,1.284,0.694,1.968,0.939c0.056,0.02,0.112,0.029,0.168,0.029c0.205,0,0.397-0.128,0.471-0.332  C9.344,21.37,9.208,21.083,8.948,20.991z"/><path d="M18.134,6.715c-0.068,0.268,0.093,0.54,0.36,0.608l2.938,0.75c0.042,0.011,0.083,0.016,0.124,0.016  c0.035,0,0.061-0.025,0.094-0.032c0.016,0.005,0.027,0.017,0.043,0.021c0.041,0.011,0.082,0.016,0.123,0.016  c0.224,0,0.427-0.15,0.484-0.376l0.75-2.938c0.068-0.268-0.094-0.54-0.361-0.608C22.424,4.1,22.15,4.264,22.082,4.531l-0.473,1.85  c-1.914-3.322-5.49-5.445-9.355-5.445c-5.633,0-10.263,4.226-10.769,9.829c-0.025,0.275,0.178,0.518,0.453,0.543  c0.015,0.001,0.03,0.002,0.045,0.002c0.256,0,0.474-0.195,0.498-0.455c0.458-5.084,4.66-8.919,9.772-8.919  c3.503,0,6.742,1.92,8.482,4.927l-1.994-0.509C18.474,6.285,18.201,6.447,18.134,6.715z"/><path d="M5.505,14.865l-2.938-0.749c-0.083-0.021-0.164-0.015-0.242,0.004c-0.007-0.002-0.012-0.006-0.019-0.008  c-0.268-0.068-0.54,0.092-0.608,0.36l-0.75,2.938c-0.068,0.268,0.093,0.54,0.361,0.608c0.042,0.01,0.083,0.016,0.124,0.016  c0.223,0,0.426-0.15,0.484-0.377l0.413-1.619c0.014,0.033,0.024,0.067,0.039,0.1c0.083,0.187,0.266,0.297,0.458,0.297  c0.068,0,0.137-0.014,0.203-0.043c0.252-0.112,0.366-0.408,0.254-0.66c-0.064-0.145-0.115-0.297-0.172-0.445l2.147,0.548  c0.042,0.011,0.083,0.016,0.124,0.016c0.223,0,0.426-0.15,0.484-0.376C5.934,15.206,5.772,14.934,5.505,14.865z"/></svg>