<?xml version="1.0" encoding="utf-8"?>
<!-- Generator: Adobe Illustrator 18.1.1, SVG Export Plug-In . SVG Version: 6.00 Build 0)  -->
<!DOCTYPE svg PUBLIC "-//W3C//DTD SVG 1.1//EN" "http://www.w3.org/Graphics/SVG/1.1/DTD/svg11.dtd">
<svg version="1.1" id="Layer_1" xmlns="http://www.w3.org/2000/svg" xmlns:xlink="http://www.w3.org/1999/xlink" x="0px" y="0px"
	 viewBox="-273 396.9 48 48" enable-background="new -273 396.9 48 48" xml:space="preserve">
<g>
	<path d="M-234,404.9v4c0.6-0.4,1.2-0.6,2-0.8v-3.3c0-2.2-1.8-4-4-4h-3c0,0,0,0,0,0c-0.6,0-1,0.4-1,1s0.4,1,1,1h3
		C-234.9,402.9-234,403.8-234,404.9z"/>
	<path d="M-260,405.9c0,0.6,0.4,1,1,1h20c0.6,0,1-0.4,1-1s-0.4-1-1-1c0,0-1.1-0.1-2-1l-2-2c0,0-0.7-1-2-1h-1c0-1.7-1.3-3-3-3
		c-1.7,0-3,1.3-3,3h-1c-1.2,0-2,1-2,1l-2,2c-0.9,0.9-2,1-2,1C-259.6,404.9-260,405.3-260,405.9z M-249,399.9c0.6,0,1,0.4,1,1h-2
		C-250,400.3-249.6,399.9-249,399.9z M-254.4,403.9c0,0,0.7-1,1.8-1h7.1c1.1,0,1.8,1,1.8,1l0.9,1h-12.5L-254.4,403.9z"/>
	<path d="M-233,427.7c-0.3,0.3-0.6,0.6-1,0.8v11.4c0,1.1-0.9,2-2,2h-26c-1.1,0-2-0.9-2-2v-35c0-1.1,0.9-2,2-2h3c0.6,0,1-0.4,1-1
		s-0.4-1-1-1h-3c-2.2,0-4,1.8-4,4v35c0,2.2,1.8,4,4,4h26c2.2,0,4-1.8,4-4V427c-0.1,0.1-0.3,0.2-0.4,0.2
		C-232.6,427.4-232.8,427.6-233,427.7z"/>
	<path d="M-226.4,418.7c0,0.1-0.1,0.1-0.1,0.2l-19.1,19c-0.1,0.1-0.2,0.2-0.3,0.3l-9.5,2.6c0,0,0,0-0.1,0l0,0c0,0,0,0,0,0
		c-0.1,0-0.1,0-0.2,0c-0.1,0-0.1,0-0.2,0c0,0,0,0,0,0c0,0,0,0,0,0c-0.1,0-0.1-0.1-0.2-0.1c0,0-0.1,0-0.1-0.1c0,0,0-0.1-0.1-0.1
		c0-0.1-0.1-0.1-0.1-0.2c0,0,0,0,0,0c0,0,0,0,0,0c0-0.1,0-0.1,0-0.2c0-0.1,0-0.1,0-0.2c0,0,0,0,0,0l0,0c0,0,0,0,0-0.1l2.7-9.4
		c0.1-0.1,0.2-0.2,0.3-0.3l18.8-18.7c0,0,0.1-0.1,0.1-0.1l0.2-0.2c0,0,0,0,0,0c1-0.9,2.3-1.5,3.8-1.5c3,0,5.5,2.4,5.5,5.5
		C-225,416.5-225.5,417.8-226.4,418.7z M-229,419.5l-2.5-2.5l-16.2,16.1c0,0,0,0,0,0l1.6,3.3L-229,419.5z M-254.7,439.2l1.9-0.5
		l-1.4-1.4L-254.7,439.2z M-253.8,435.8l2.4,2.4l4.2-1.2c0,0-1.8-3.6-1.8-3.6l-3.7-1.8L-253.8,435.8z M-248.6,432.1
		C-248.6,432.1-248.6,432.1-248.6,432.1l16.2-16l-2.5-2.5l-17,16.9L-248.6,432.1z M-230.5,411c-1.2,0-2.3,0.5-3.1,1.4l0,0l-0.4,0.3
		l5.9,5.9l0.4-0.4l0,0c0.8-0.8,1.4-1.8,1.4-3C-226.3,412.9-228.2,411-230.5,411z"/>
</g>
</svg>
